# xmcd
#
# Track frame offsets:
# 150
# 18690
# 34720
# 49675
# 61412
# 75915
# 95207
# 115632
# 130047
# 153952
# 170572
# 183570
# 204955
# 222367
#
# Disc length: 3164 seconds
#
#
# Revision: 0
# Processed by: cddbd v1.5.2PL0 Copyright (c) Steve Scherf et al.
# Submitted via: FreeRIP 2.951 
#
DISCID=b70c5a0e
DTITLE=O Som do Barzinho - As Canções que o Rei Cantou - As Cnções que o Rei Cantou - ao Vivo
DYEAR=1900
DGENRE=MPB
TTITLE0=Falando Sério
TTITLE1=Nossa Canção
TTITLE2=Esqueça
TTITLE3=Splish Splash
TTITLE4=Quase Fui lhe Procurar
TTITLE5=Meu Pequeno Cachoeiro
TTITLE6=Força Estranha
TTITLE7=Ciúme de Você
TTITLE8=Ternura
TTITLE9=Como Vai Você
TTITLE10=Não Vou Ficar
TTITLE11=Custe o que Custar
TTITLE12=Você Não Serve pra Mim
TTITLE13=OSósia
EXTD=
EXTT0=
EXTT1=
EXTT2=
EXTT3=
EXTT4=
EXTT5=
EXTT6=
EXTT7=
EXTT8=
EXTT9=
EXTT10=
EXTT11=
EXTT12=
EXTT13=
PLAYORDER=
